<?xml version="1.0" encoding="UTF-8"?>
<svg id="Layer_2" data-name="Layer 2" xmlns="http://www.w3.org/2000/svg" viewBox="0 0 180.85 181.34" fill="#ff6b00">
  <g id="Layer_1-2" data-name="Layer 1">
    <g>
      <path d="M176.23,35.79l-13.06-.19-2.54-1.4c-.77-.43,1.16-3.23,2.17-3.19l17.82.59.17,142.04c.22,2.03-.21,7.03-2.01,7.67L.02,181.34,0,34.8c0-1.86,1.86-3.77,3.15-3.84l14.2.07c.9,0,3.04,1.38,2.85,2.21s-1.64,1.94-2.51,2.34l-13.19-.09.05,57.39,171.5.04.18-57.15ZM176.26,176.9l-.12-79.51H4.42s.17,79.54.17,79.54l171.67-.03Z"/>
      <path d="M66.06,59.68l-18.4-11.68c-1.31,2.19-4.59,4.62-6.24,2.42-.71-.94.68-3.3,1.9-5.01l-8.6-6.34c-1.38,1.77-3.58,4.14-5.24,3.69-2.51-.67-.47-4.96.76-6.34-2.24-2.92-4.47-6.53-3.73-10.7C28.72,13.26,37.53,2.65,50.8,0l.25,9.32c3.14,6.59,14.08,8.99,19.32,3.47,1.15-1.22,4.56-4.29,5.27-2.95,3.94,8.87,7.53,14.69,14.48,20.37.71.58,2.45-1.68,3.21-2.37,10.83-9.89,8.19-15.79,11.72-18.22.65-.45,2.72.65,3.25,1.5,5.1,8.22,16.34,4.83,19.7,1.25,1.74-1.85,1.7-5.96,1.68-8.51l-.03-3.01c-.03-3.33,22.29,6.07,24.62,25.73.49,4.14-.56,7.04-3.82,9.39l2.38,4.84c.34.7-2.2,2.62-2.75,2.08l-3.49-3.44c-2.41.72-6.95,3.84-8.78,6.01.82,1.85,2.41,5.12.44,5.94-1.6.67-3.65-1.23-5.03-3.22l-17.97,11.63c4.55,5.91,6.29,12.37,2.94,18.56-3.04,5.62-10.21,6.74-15.17,3.31-.84.4-2.46,1.58-3.45,2.39-.64.52-2.79,1.03-3.35.44s-.42-2.23-.14-2.99l.84-2.3c.24-.66-5.43-5.3-8.2-3.95-1.86.9-4.43,3.09-4.21,4.69l.56,4.12c.14,1.01-3.02.57-3.73-.17l-2.49-2.57c-3.44,1.75-6.91,2.95-10.17,1.84-2.96-1.01-6.1-4.26-6.96-7.69-1.45-5.78.39-9.86,4.34-15.77ZM88.69,36.74l-5.99,5.18c-.61.53-2.49.58-3.07.04-.43-.41-.12-2.56.36-3.02l6.16-5.89-4.45-4.57-6.49,5.87c-.63.57-3.13.2-3.22-.52-.06-.54.03-2.13.42-2.5l6.41-6.16-5.17-8.92c-5.29,4.81-12.42,4.92-18.92,2.28-5.59-2.27-8.3-6.3-8.69-12.81-4.45,2.84-7.99,6.03-10.87,9.6,10.36,8.78,17.57,14.7,15.48,29.1,18.11,11.82,35.7,22.95,54.23,33.73,1.95,1.14,5.42,1.49,6.92.68,12.94-6.95-10.48-29.28-15.75-34.89l-6.14,5.22c-.67.57-2.78.63-3.27-.05-.37-.52-.14-2.62.39-3.09l6.24-5.59c-.78-1.33-3.35-3.71-4.59-3.68ZM94.91,34.64c5.07,2.08,5.6,6.09,7.58,8.96,3.02,4.38,6.38,7.99,10.06,12.49l17.45-11.1c-1.27-8.6,1.27-16.25,7.54-22.14l7.62-7.15c-2.99-4.52-6.35-7.6-11.04-9.76-.02,7.3-3.52,11.14-9.32,13.28-6.23,2.3-13.05,1.85-17.97-2.85l-5.17,9.33,6.1,5.52c.74.67,1.16,2.56.85,3.32s-2.7.75-3.36.18l-6.31-5.42c-1.72-.06-5.08,3.99-4.02,5.35ZM46.55,41.15c.54-10.58-6.29-16.21-13.47-21.35-1.52,2.76-3.96,8.95-1.18,11.32,4.64,3.95,9.76,7.19,14.64,10.03ZM149.05,30.78c2.25-2.25.11-8.2-1.57-10.77-6.93,4.86-14.84,12.79-13.01,21.35,5.21-3.29,10.11-6.1,14.58-10.58ZM79.5,69.37l-3.46,2.85c-.46.38-2.36-1.22-2.15-1.77l1.82-4.74-6.31-3.77c-3.09,4.82-6.23,12.07-.57,16.23,1.15.84,5.02,1.11,6.35.27l10.01-6.35c-1.63-2.11-4.39-3.8-5.69-2.72Z"/>
      <path d="M159.48,126.56l-36.09-.04c-.82,0-2.32-.89-2.77-1.43-.56-.68,1.1-2.97,2.1-2.97l36.96.08c1.03,0,2.51,1.47,2.55,2.13.04.83-1.78,2.24-2.74,2.24Z"/>
      <path d="M58.05,140.38l-37.27-.07c-.65,0-2.15-1.51-2.21-2.18-.07-.84,1.78-2.26,2.71-2.26h35.9c1,0,2.56.94,3.07,1.44.64.62-1.22,3.07-2.2,3.07Z"/>
      <path d="M159.78,140.38l-36.78-.04c-.97,0-2.71-1.46-2.67-2.17.05-.89,1.95-2.29,3.08-2.29h35.79c.73,0,2.37,1.08,2.87,1.55.63.58-1.2,2.95-2.29,2.95Z"/>
      <path d="M57.89,126.58l-36.42-.05c-.91,0-2.74-1.57-2.52-2.33s1.92-2.09,2.95-2.09l35.9.05c.96,0,2.42,1.46,2.72,2.09s-1.76,2.33-2.64,2.33Z"/>
      <path d="M102.25,140.33h-22.78c-.92,0-2.5-1.33-2.58-2.12s1.7-2.36,2.61-2.35l22.27.08c.93,0,2.35,1.16,2.73,1.55.52.52-1.26,2.84-2.26,2.85Z"/>
      <path d="M102.27,126.61l-22.51.12c-.93,0-2.63-1.28-3.01-1.86-.48-.72,1.44-2.62,2.31-2.62l22.45.02c.79,0,2.77,1.26,3.03,2s-1.49,2.33-2.27,2.34Z"/>
    </g>
  </g>
</svg>