<?xml version="1.0" encoding="UTF-8"?>
<svg id="Layer_2" data-name="Layer 2" xmlns="http://www.w3.org/2000/svg" viewBox="0 0 187.39 186.57" fill="#ff6b00">
  <g id="Layer_1-2" data-name="Layer 1">
    <g>
      <path d="M56.81,54.48c-6.39,8.34-15.14,12.31-25.11,11.81-8.97-.45-17.64-5.4-23-13.66C.3,39.7,2.74,22.69,14.38,13.14c11.8-9.68,27.96-9.43,39.42,1.01,11.13,10.15,12.87,27.47,3.01,40.34ZM26.85,28.35c3.95-2.2,6.6-6.36,3.68-10.67-3.76-5.57-15.29,2.03-15.42,6.98-.09,3.27.85,5.16,4.45,6.09,1.97.51,4.33-.75,7.29-2.39ZM51.19,28.76c2.52-5.01-.99-7.46-3.51-10.02-3.01-3.04-7.15-3.6-10.84-1.3-1.5.94-1.93,4.99-1.06,6.75,1.37,2.75,12.14,11.07,15.41,4.56ZM23.22,40.84c-1.04-4.16-4.87-8.86-8.83-6.55-5.44,3.17-2.08,14.51,3.72,16.87,1.67.68,4.52-1.41,5.86-3.53.86-1.36,0-3.8-.75-6.79ZM54.33,45.8c1.68-3.65,2.65-8.74-1.49-11.19s-8.02,3.02-9.34,7.11c-1.19,3.7-.67,7.56,2.8,8.96,3.43,1.38,6.39-1.28,8.04-4.88ZM41.7,54.12c0-5.28-4.68-6.56-8.53-6.18-2.07.21-4.86.66-5.94,1.56s-2.35,3.95-1.83,5.27c1.47,3.77,5.54,5.16,9.3,4.86,2.45-.2,7.01-2.13,7.01-5.51Z"/>
      <path d="M126.36,186.4l-59.05.18-.23-81.38-18.92-.19c-.69,0-2.13-.49-2.66-.73-.72-.32-.71-3.17-.04-3.85l51.44-52.93,50.68,52.33c.49.5,1.13,2.17,1.33,2.82s-1.47,2.24-2.32,2.25l-20.12.25-.1,81.26ZM121.78,182.1l.15-81.33,19.7-.64-44.65-46.39-44.94,46.39,19.42.69.19,81.27,50.12.02Z"/>
      <path d="M161.49,44.34c-10.11,2.36-19.98-3.54-23.9-11.27-4.88-9.63-2.74-20.21,4.3-26.7,7.83-7.23,18.63-8.61,27.73-2.52,7.57,5.07,10.95,14.12,9.12,23.22-1.59,7.93-7.72,15.05-17.25,17.28ZM155.52,10.41c-1.16-3.73-5.53-2.53-7.13-1.31-2.17,1.64-4.94,4.92-2.35,7.33,3.2,2.97,10.77-1.86,9.48-6.01ZM170.27,16.23c.65-1.65-1.96-5.33-3.5-6.67-2.09-1.8-5.51-1.6-6.91.77-.85,1.43.5,4.56,2.2,5.8,2.32,1.69,6.3,4.97,8.21.09ZM146.96,21.05c-.84-.7-3.56-.19-4.24.67-2.48,3.12-.75,8.62,2.81,10.17.99.43,3.86-.58,4.01-1.64.44-3.06-.16-7.17-2.58-9.21ZM171.22,22.96c-.84-.56-3.12-.96-3.93-.37-1.92,1.41-3.65,5.64-2.68,8.69.36,1.14,3.65,1.63,4.56.86,4.14-3.45,3.6-8.14,2.05-9.19ZM161.88,34.17c-1.73-3.8-9.37-3.23-10.34.04-.91,3.06,2.92,4.94,5.15,4.87,1.93-.05,6.41-2.24,5.19-4.92Z"/>
      <path d="M29.12,129.81c15.79-1.94,28.62,9.4,30.18,23.94,1.59,14.9-8.87,28.19-24.01,29.89-14.35,1.61-27.91-8.61-29.72-23.15s7.73-28.73,23.55-30.68ZM49.26,141.55c-8.43-9.85-23.1-9.96-32.19-1.37-9.37,8.85-9.5,23.27-.79,32.29s22.43,9.19,31.37.92c8.75-8.1,10.14-21.88,1.61-31.84Z"/>
      <path d="M174.18,179.84c-14.45,8.64-32.23,2.39-38.7-11.53-6.96-14.97.53-32.31,16.25-37.44,13.23-4.32,27,1.92,32.8,13.64,6.18,12.48,2.16,27.85-10.35,35.33ZM154.08,134.84c-12.83,3.48-18.8,16.53-15.73,27.96,3.32,12.33,15.81,18.78,27.73,15.69s18.89-15.52,16.16-26.95c-3.03-12.65-14.96-20.29-28.16-16.7Z"/>
      <path d="M130.14,70.47c-.72-1.09-1.31-2.02-1.59-2.62-.35-.75,1.92-2.36,2.85-2.48,30.12-3.92,39.14-22.84,43.74-20.37.89.48.48,3-.33,3.85-11.98,12.48-27.5,18.73-44.67,21.62Z"/>
      <path d="M14.83,100.95c-.04.94-1.41,2.72-2.2,2.65s-2.42-1.62-2.43-2.54l-.03-8.18-7.12-.29c-.86-.04-2.65-1.11-3-1.82-.44-.89,1.58-2.97,2.65-2.99l7.13-.16.44-8.21c.04-.84,1.59-2.47,2.34-2.38s2.1,1.56,2.14,2.35l.37,8.22,7.82.52c.57.04,1.84,1.29,2.2,1.73.48.59-1.26,2.59-2.08,2.61l-7.86.24-.37,8.24Z"/>
      <path d="M35.05,118.72c0,1.25-.92,3.07-1.58,3.32-.82.3-2.7-1.86-2.7-2.82l.03-42.57c0-.89,1.24-2.47,1.81-2.64.76-.23,2.42,1.54,2.42,2.36v42.35Z"/>
      <path d="M145.71,47.12c2.22,6.11-27.35,16.97-27.98,11.75s10.28-1.37,24.62-12.24c.62-.47,3.11-.21,3.36.49Z"/>
      <path d="M162.41,118.78c0,.98-1.19,2.76-1.79,3.1-.74.43-2.58-1.66-2.58-2.67l-.04-29.53c0-.76,1.3-2.32,1.84-2.59.72-.35,2.54,1.45,2.54,2.35l.03,29.34Z"/>
      <path d="M43.44,158.93l-21.14.13c-.91,0-2.69-1.01-3.22-1.52-.66-.65,1.18-3.01,2.18-3.01l21.56-.04c.78,0,2.19,1.01,2.62,1.39.58.51-1.21,3.05-2.01,3.05Z"/>
      <path d="M171.13,158.94l-20.84.12c-.91,0-2.69-1-3.23-1.5-.68-.63,1.2-3.04,2.25-3.05l21.69-.04c.98,0,2.63,1.47,2.62,2.26s-1.67,2.2-2.49,2.21Z"/>
    </g>
  </g>
</svg>