<?xml version="1.0" encoding="UTF-8"?>
<svg id="Layer_2" data-name="Layer 2" xmlns="http://www.w3.org/2000/svg" viewBox="0 0 207.8 189.52" fill="#ff6b00">
  <g id="Layer_1-2" data-name="Layer 1">
    <g>
      <path d="M108.1,169.29c23.15-9.56,44.66-27,51.63-49.79.4-1.32,3.12-1.58,3.41-.95s.73,2.09.49,3c-6.11,23.9-32.54,43.99-55.38,52.76-31.97-12.76-60.29-36.17-60.27-73.37l.02-57.67c12.33-7.25,24.69-10.4,38.23-13.03l2.2-8.72c-17.27,2.28-32.9,7.8-48.55,16.82l.09,62.61c.06,41.24,32.06,68.74,68.43,81.73,12.68-4.56,26.22-12.77,36.42-20.57,13.41,3.4-33.39,25.13-36.62,25.54-39.06-14.37-72.54-41.81-72.65-86.65l-.16-65.07c17.69-11.29,37.38-18.12,59.03-19.28l-4.92,21.35,11.79,11.9-3.05,11.98,6.82,5.44c1.92,1.53,3.25,3.84,4.7,6.76l4.18-9.9-12.51-25.28,9.8-23.57c21.01,1.03,51.41,7.61,68.55,21.48l-.1,26.89c0,.81-.82,2.52-1.08,3.08-.34.74-3.42-.22-3.43-1.18l-.13-26.87c-18.99-11.71-38.88-16.59-60.76-18.76l-3.24,8.06c20.88,2.32,37.64,4.74,56.11,15.38l-.24,57.01c0,1.05-1.71,2.81-2.36,2.58-.82-.28-2.12-1.99-2.12-2.93v-54.03c-16.49-8.82-34.71-12.45-52.97-13.09-1.52,1.1-3.13,5.25-2.29,6.97l12.01,24.5-11.17,24.47c-.3.67-1.75,1.81-2.39,1.66-.8-.18-1.98-2.14-1.96-3.07l.26-14.89-10.75-8.93,3-12.32-10.93-10.95c-.87-.87-.46-4.11-.33-5.15-11.4,1.89-21.91,5.53-32.38,10.9l.07,55.86c.04,33.34,27.12,55.5,55.51,67.29Z"/>
      <path d="M182.78,126.99c-.64.75-3.84,1.39-4.52.68l-12.49-13.08c-.56-.59-1.25-2.3-1.28-3.02-.04-.91,1.54-2.72,2.38-2.36l4.59,1.95.3-37.84c5.32-1.38,10.43-1.18,16.49-.39l.22,39.06,3.47-2.25c.83-.54,4.19,1.72,3.52,2.5l-12.67,14.75Z"/>
      <path d="M23.62,52.54l3.59-2.29c.73-.47,2.85.87,3.81,2.24l-13.25,15.15c-1.23,1.41-4.29.79-5.59-.65-3.92-4.35-8.52-9.52-12.06-13.89-.65-.81,1.72-3.58,2.52-3.16l4.2,2.2.22-24.29c.04-4.63,2.64-8.3,6.93-10.47s16.71-3.03,17.42,2.11c.56,4.06-16.51-3.83-17.86,5.88-.46,3.28,8.28,2.53,9.76,3.39l.3,23.79Z"/>
      <path d="M204.49,174.59c-6.73,12.69-21.25,17.8-33.79,13.35-13.17-4.68-20.81-18.26-17.92-31.8,2.87-13.46,15.08-23.1,29.45-22.04,9.36.69,17.28,5.97,21.53,13.13,4.98,8.39,5.51,18.35.73,27.37ZM173.14,139.65c-13.12,3.85-18.88,17.78-14.94,29.77,3.91,11.91,16.57,17.94,28.54,14.38s18.91-16.5,15.48-28.47c-3.52-12.27-15.95-19.54-29.08-15.69Z"/>
      <path d="M118.28,128.32l-10.31-10.2-9.78,9.77c-.66.66-2.68,1.16-3.34.72-.82-.55-.68-3.09.04-3.82l9.84-10.04-9.92-10.22c-.57-.58-.74-2.92-.3-3.48s2.09-.4,2.75-.03l10.76,10.41,10.29-10.11c.46-.46,2.63-.6,3.23-.39.8.28.67,2.75,0,3.44l-10.18,10.47,9.93,10.42c.5.53.62,2.39.54,2.99-.1.8-2.93.71-3.57.08Z"/>
      <path d="M30.83,1.02c1.44-5.59,17.72,13.52,12.77,13.06-.67-.06-2.65-.34-3.15-.84l-9.08-8.99c-.54-.54-.71-2.56-.54-3.22Z"/>
      <path d="M46.06,18.53c1.79-.77,4.39.67,4.39,1.84s-.77,3.56-1.77,4.08-3.24-.54-3.87-1.47.14-3.98,1.26-4.46Z"/>
      <path d="M188.11,173.6l-7.97-8.1-8.03,7.82c-.49.48-2.57.57-3.15.39-.77-.24-.58-2.79.07-3.47l7.61-7.86-8.14-8.64c-.74-.78-.75-3.43.06-3.98s2.91.18,3.64.94l7.86,8.14,8.86-8.65c.43-.42,3.47-.54,3.46.03l-.03,2.78-8.84,9.21,7.84,8.22c.41.42.52,2.23.47,2.81-.06.79-3.07,1.01-3.71.36Z"/>
    </g>
  </g>
</svg>