<?xml version="1.0" encoding="UTF-8"?>
<svg id="Layer_2" data-name="Layer 2" xmlns="http://www.w3.org/2000/svg" viewBox="0 0 211.98 201.79" fill="#ff6b00">
  <g id="Layer_1-2" data-name="Layer 1">
    <g>
      <path d="M122.5,118.15l.86-9.83c.07-.78.92-2.22,1.4-2.71s2.33,1.04,2.41,1.73l.7,5.71,9.09-.35c3.51-6.4,6.59-12.81,6.92-20.26-.98-3.22-4.79-7.86-7.31-10.19l-13.5,3.92-7.32,21.59-23.19-.19-8.47,11.34c2.79,3.57,5.06,7.28,8.02,9.29l5.02,3.41-4.92,2.37,5.38.34c1.28.08,1.81,3.04,1.47,4.88-16.71-.65-32.41-9.81-40.86-24.78-10.59-18.75-8.69-42.48,5.42-58.76,21.53-24.84,60.32-23.57,80.22,2.12,12.57,16.23,14.21,36.8,4.72,55.02l15.7.28.58-5.52c.07-.7,1.5-1.91,2.15-2.03.82-.16,2.07,1.72,2.12,2.61l.51,9.01c.7.54,2.33-1.8,3.36-2.83,3.49-3.52,16.23-.78,16.27,6.14l.41,71.74c.03,5.9-4.77,9.59-10.36,9.59l-69.31-.05c-5.03,0-8.46-4.96-8.46-9.44l-.04-69.02c0-4.87,2.92-9.28,7.89-9.97,2.88-.4,7.22-.45,9.36,0,.96,1.86,1.42,3.21,3.75,4.83ZM86.24,46.72c.53-.3,1.72-2.29,1.34-2.07-9.18,3.42-17.22,8.66-22.05,16.6,6.29-5.28,14.25-10.86,20.71-14.53ZM140.26,60.71c-6.01-8.06-13.4-12.74-22.29-16.15.39.96,1.76,2.37,3,3.1,7.1,4.17,13.24,8.61,19.3,13.05ZM84.19,82.03l16.15-12.18c.18-4.2.11-9.85-.2-13.96l-11.86-5.07c-7.54,4.02-13.77,8.16-19.24,14.24l1.25,12.68,13.9,4.29ZM135.77,77.84l1.28-12.63c-5.42-6.05-11.94-10.77-19.52-14.44l-12.86,5.88.37,13.49,17.04,12.15,13.69-4.45ZM80.53,116.32l8.54-11.39-6.28-18.67-13.62-4.5-7.57,10.2c1.14,7.5,3.05,14.87,7.85,21.3,2.71,1.16,7.69,2.38,11.08,3.06ZM64.18,114.35c-2.9-7.47-5.34-14.47-7.58-22.25-.39,7.93,2.23,15.9,7.58,22.25ZM142.82,112.77c4.8-6.43,6.66-13.6,6.89-20.92l-6.89,20.92ZM180.79,197.44c2.72-.96,4.24-2.81,4.43-5.14l.02-52.33-79.22-.06v53.43c0,1.99,3.45,4,5.25,4.08l69.52.02Z"/>
      <path d="M127.17,14.1c32.26,9.79,55.61,35.1,61.58,68.19l-9.93,1.63,14.56,18.85,12.56-19.84-10.53-.2c-5.14-32.11-26.08-58.74-56.15-71.32-43.51-18.21-93.04.06-115.88,41.14-11.68,21-9.12,39.28-12.47,41.48-.74.49-2.61-1.97-2.56-3.08C10.55,40.28,52.97.51,103.29,0c47.01-.47,86.63,32.78,95.84,78.34l9.26-.14c1.03-.02,2.82.43,3.32.99s.22,2.73-.18,3.36l-14.9,23.79c-.37.6-1.47,1.6-1.97,1.89-.67.38-2.73-.47-3.22-1.09l-18.28-23.18c-.49-.62-.94-2.48-.79-3.06.2-.76,2.02-1.64,2.84-1.68l8.23-.4c-9.05-39.87-45.75-66.43-86.17-63.17C57.67,18.87,25.62,52.19,23.44,91.99c-.07,1.26-2,2.65-2.56,2.2s-1.83-2.06-1.74-3.58C22.03,39.25,74.63-1.84,127.17,14.1Z"/>
      <path d="M33.46,125.71l-16.33-17.98-11.44,20.84,10.73-.02c10.74,34.79,41.97,58.89,77.72,62.72.82.09,2.42,1.86,2.01,2.44s-2.17,1.8-2.94,1.72c-36.31-3.49-68.09-28.07-80.2-62.58l-9.77.65c-.71.05-2.34-.41-2.89-.84s-.35-2.83,0-3.46l13.86-25.71c.29-.53,1.59-1.64,2.05-1.73.62-.12,2,.52,2.55,1.14l20.55,22.86c.47.52,1.17,2.55.77,2.92-.53.49-1.76,1.15-2.47,1.27l-8.63,1.49c11.56,26.88,36.42,45.25,65.37,49,.81.1,2.07.98,2.49,1.5.56.69-1.61,3.02-2.52,2.91-32.11-3.81-61.62-25.9-70.91-57.01l10.02-2.12Z"/>
      <path d="M138.67,182.13c1.91-2.26,2.66-9.54-.7-11.07l-4.01-1.82c-.89-.4-.19-3.62.75-3.98,1.34-.52,3.51-1.2,4.32-2.01s1.01-3.29,1.07-5.18-1.72-3.91-3.17-4.15c-2.52-.42-4.25,2.27-4.18,4.7.04,1.28-4.51,2.07-5.44,1.07-1.43-1.54-.32-6.18,1.1-7.97,1.55-1.95,5.06-3.26,7.82-3.35,5.75-.17,9.77,3.19,10.3,8.92.33,3.55-1.01,7.23-2.93,9.95,2.04,3.07,3.29,7.1,3.12,10.9-.3,6.97-4.54,10.85-10.7,10.77-5.77-.07-10.85-5.06-9.17-11.59.43-1.68,5.86-1.15,6.21.56.41,2,.92,3.76,1.4,4.63s3.57.4,4.23-.38Z"/>
      <path d="M156.35,187.87l-.2-31.11-4.98.5c-.92.08-1.36-3.52-.55-4.06l3.38-2.28c2.55-1.71,5.06-2.6,8.65-2.18l-.02,38.55c-1.09,1.25-4.36,1.32-6.28.57Z"/>
    </g>
  </g>
</svg>