<?xml version="1.0" encoding="UTF-8"?>
<svg id="Layer_2" data-name="Layer 2" xmlns="http://www.w3.org/2000/svg" viewBox="0 0 190.79 190.58" fill="#ff6b00">
  <defs>
    <style>
      .cls-1 {
        font-family: Outfit-Medium, Outfit;
        font-size: 30px;
        font-variation-settings: 'wght' 500;
        font-weight: 500;
      }
    </style>
  </defs>
  <g id="Layer_1-2" data-name="Layer 1">
    <g>
      <path d="M188.53,115.75c-10.03,45.88-51.52,76.58-96.89,74.75C45.54,188.64,7.71,154.15,1.01,108.84-5.76,63.1,22.08,18.08,66.69,4.37c32.99-10.14,68.37-2.38,93.4,20.66,24.59,22.63,35.87,56.72,28.44,90.72ZM36.26,163.96c30.78,26.79,75.12,29.06,108.49,7.34,32.88-21.4,48.54-60.79,38.28-99.77C171.96,29.49,132.06,1.63,88.88,4.74,46.69,7.78,11.32,39.81,5.33,83.08c-4.16,30.07,7.61,60.59,30.93,80.88Z"/>
      <path d="M79.36,134.71l.37-18.04,16.92-.24.33,17.55h18.19s.42-13.59.42-13.59c6.37-3.33,10.58-6.63,16.73-11.88l.28,30.12-73.43-.09.36-12.94,17.15-.19c1.04,3.23-.36,5.68,2.69,9.29Z"/>
      <path d="M69.59,69.13c-7.17-.62-12.39-5.07-12.93-11.83-.46-5.73-.61-12.06.21-17.74,1.02-7.05,7.6-10.48,13.74-10.54,6.44-.07,12.81,4.03,13.8,11.35.72,5.34.54,11.27.13,16.75-.56,7.54-6.9,12.71-14.96,12.01ZM78.81,40.08c-.56-3.87-5.08-5.64-8.18-5.67-2.8-.03-7.21,1.4-7.93,4.96-1.23,6.09-1.15,12.88-.12,18.97.74,4.34,5.36,5.8,9.04,5.57,9.9-.63,8.33-15.79,7.18-23.83Z"/>
      <path d="M127.38,103.62c-1.18,7.03-7.94,9.72-13.63,9.72s-11.9-3.25-13.18-9.88c-1.25-6.45-1.2-14.04-.03-20.52,1.28-7.07,7.92-10.43,14.05-10.12s12.29,4.26,13.11,11.33c.7,6.04.75,13.1-.32,19.46ZM122.21,84.68c-.29-4.41-4.99-6.49-8.57-6.56-10.41-.21-8.68,14.04-7.98,22.93.39,4.9,4.93,7.34,8.94,6.98,10.1-.93,8.29-13.17,7.61-23.35Z"/>
      <path d="M71.37,112.2c-.55.95-3.27,1.18-3.88.64-.73-.64-.95-2.58-.13-4L112.62,31.06c.6-1.04,2.57-2.14,3.27-2.04s1.53.96,2.6,2.15l-47.12,81.03Z"/>
    </g>
    <text class="cls-1" transform="translate(66.83 170.34)"><tspan x="0" y="0">WIN</tspan></text>
  </g>
</svg>