<?xml version="1.0" encoding="UTF-8"?>
<svg id="Layer_2" data-name="Layer 2" xmlns="http://www.w3.org/2000/svg" viewBox="0 0 145.22 209.14" fill="#ff6b00">
  <g id="Layer_1-2" data-name="Layer 1">
    <g>
      <path d="M4.67,58.38l-.18,61.61c-.13,43.32,29.92,70.05,67.92,84.31,35.36-12.21,68.34-40.01,68.3-80.28l-.06-66.04c-30.22-11.9-68.65-12.49-100.24-8.69-.76.09-2.78-1.01-2.91-1.73-.16-.91,1.72-2.63,2.77-2.77,31.23-4.09,75.52-3.28,104.83,10.57l.13,68.67c.08,43.02-35.03,72.56-72.68,85.11C35.75,197.29.27,165.86.17,124.92L0,56.3c0-.94,3.16-2.45,4.11-2.34,1.51.18.56,2.73.55,4.42Z"/>
      <path d="M17.25,86.87l.04,38.21c.03,31.98,28.06,55.31,55.55,65.94,11.55-5.3,21.47-10.79,31.22-18.5,13.14-11.32,23.69-26.61,23.76-44.6l.21-61.48c-30.95-7.84-62.15-8.5-93.27-3.89-.82.12-2.29-.26-2.82-.69-.67-.54-.04-2.58.57-3.77,33.5-4.51,67.04-4.59,100.09,5.2l-.1,63.74c-.03,19.97-11.15,36.79-25.92,49.25-10.27,8.37-21.25,14.09-33.63,19.48-33.74-13.05-60.63-36.4-60.43-75.73l.17-32.79c0-1.15,1.35-2.89,2.21-3.08s2.36,1.8,2.36,2.72Z"/>
      <path d="M25.98,79.11l-12.68.71c-2.25.13-3.53-2.59-3.54-4.72l-.14-29.19-4.58,1.66c-.86.31-2.73-2.3-2.01-3.11l12.02-13.7c.86-.98,4.08-2.39,4.94-1.43l13.92,15.44c-1.76,2.9-3.68,2.22-7.76.86l-.16,33.48Z"/>
      <path d="M65.36,101.61c18.57-4.39,36.33,7.75,40.21,25.52,3.89,17.8-7.36,35.82-25.62,39.85-17.32,3.81-35.26-6.99-39.62-24.53s5.96-36.33,25.04-40.84ZM68.3,105.52c-16.48,2.53-26.53,18.2-24.14,33.21,2.53,15.97,17.66,26.76,33.43,24.11,15.34-2.58,26.25-17.04,24-32.47s-16.57-27.43-33.29-24.86Z"/>
      <path d="M92.55,37.81l-39.9.16-3.59-28.62c-.1-.81.67-2.65,1.14-3.01s2.24.02,2.88.58l9.36,8.17,7.65-13.23c.29-.51,1.5-1.53,1.99-1.79.65-.35,2.34.97,2.8,1.75l7.92,13.3,9.61-8.01c.48-.4,1.85-.91,2.39-.98.71-.09,1.52,2.24,1.41,3.09l-3.67,28.61ZM88.99,33.34l1.8-18.57-9.06,6.78-9.25-14.99-8.69,14.76-9.47-6.94,2.09,19.12,32.58-.17Z"/>
      <path d="M81.37,95.96l-17.09.24-.52-13.22c-2.12.21-3.9.32-4.88,0-1.1-.37-1.01-3.58-.17-4.46l14.09-14.78,15.74,17.01c-1.19,2.81-3.76,2.93-7,1.58l-.17,13.63Z"/>
      <path d="M56.04,136.67c-.68-.63-.64-3.93.21-3.98s2.63.39,3.34,1.02l8.7,7.9,18.69-18.72c.78-.78,3.63-.86,3.86.04s-.23,2.94-.91,3.61l-21.59,21.51-12.3-11.39Z"/>
    </g>
  </g>
</svg>