<?xml version="1.0" encoding="UTF-8"?>
<svg id="Layer_1" xmlns="http://www.w3.org/2000/svg" version="1.1" viewBox="0 0 1024 1024">
  <!-- Generator: Adobe Illustrator 30.1.0, SVG Export Plug-In . SVG Version: 2.1.1 Build 136)  -->
  <defs>
    <style>
      .st0 {
        fill: #dc3939;
      }
    </style>
  </defs>
  <path class="st0" d="M202.6,211.3c11.7-9.8,21.6-17,33.8-22.9,11.1-6.2,21.3-12.7,31-21,13.1-12.1,23-26.3,30.9-42.3,5.1-11.7,9.8-22.7,14.6-35.9-42.8,11.4-77.1,35.2-95,75.8s-11.7,30-15.3,46.2ZM821.1,211c-4.7-17.8-10.7-32.9-17.7-48.4-18.3-39.5-52.7-60.7-93.7-72.8,16.1,42.7,30.3,72.6,69.6,95.8l26.9,15.2c5.2,3,8.8,8.2,14.8,10.2ZM141,291.4c-12,23.1-22.4,47.2-29.1,72.4s-.7,1.5-.9,1.8-1,.3-.9,0l.5-2,6.8-28.6c4.1-17.1,9.9-38.9,6-57.1l-10.8-49.5c-24.9,27.4-40.6,66.3-26.4,102.4l14.4,36.4c2.4,6.2,2.6,12.2,1.5,18.8-2.9,16.7-5.8,32.9-7,49.9s-.4,9-1.5,13.2c-1-31.8-5.3-74.4-23.9-100.6l-13.8-19.3c-.3-.4-1.1-1.7-1.3-1.4-5.6,8.1-9.8,35.7-11,46.8-3.5,32.2,8.9,61.8,33.3,82.6,16.2,13.8,17.8,22.6,19.2,43.8,1,16.1,2.6,31,4.7,47.1l-6.4-21.3c-4-13.3-10.2-25.3-18.9-36.3s-30.4-32.8-43.1-40.6c-3.2-2-1.3,33.4-1.1,36.9,2.7,41.1,29.5,64.9,62,85.1s13.7,11.1,16.9,20l8.5,23.3c4.6,12.6,9.7,24.1,15,36.6-5-6.5-9-12.9-13.4-20-14.6-23.5-35.1-41.8-60.6-52.6l-20.2-8.5-1.4,1.9c12.3,38.4,26.4,68.8,63.7,88,32.2,16.5,39.5,5.4,66.4,44.2s18.1,24.8,28.6,36.3c-4.8-3-9.3-6.3-13.8-10.2-29.8-25.9-63.9-42.5-104-44.7s-2.3,0-2.2.4c1.8,6.5,22.5,32.3,28.6,38.8,16.5,17.6,41.1,34.1,65.5,35.6l29.5,1.8c7.3.5,15.6,2.2,21.8,6.2s15.4,10.7,23.1,16.9c12.1,9.7,34.4,25.1,48.1,30.4s.4.5,0,.6-1.9-.1-2.5-.3l-52.3-21.4c-23.3-9.5-46.9-11.9-71.6-8.1l-19.2,2.9c-.9.1-2.2.6-1.9,1,7.8,11.4,31.8,29,44.8,35.9,29.5,15.6,51.1,13.6,82.1,6.3,22-5.2,23.3-7.5,45.7,1.3l50.2,19.8,15.9,4.8c1.8,0,1,.3-.8,1l-39.2-7c-39.8-7.1-65.9.1-102.9,13.8l-.2,2.4c33.8,22.6,66.8,36.1,107.4,23.8s29.7-10.8,44.6-17.4c6.4-2.9,13.9-6.1,21.3-5.2,29.1,3.6,57.1,7.8,87.3,13.2-15.6,3.1-31.1,3.2-47.3,4.1-40.4,2.3-68.9,17.5-101,40.4-.4.3-1,1.7-.5,1.9l1.9.6c32.1,11,57.6,16.9,89.7-1.6,19.3-11.2,41.9-30.2,60.6-35.4s11.7,1.2,16.4,3.3c20.8,9.2,33.2,23.4,56,34,30.5,14.2,61.9,12.7,93.7-1.4-35.3-25.2-65.6-41-109.7-42.2-12.9-.3-25.2-1.3-38-2.5-1.5-.7-2.2-1.1-1.2-.9,1.1-.5,2.3-1.2,2.9-1.3l43.1-6.6,2.1-.2,32-5.1c11.5-1.8,22.8,3.3,33.2,8.1s26.5,11.5,40.9,15.1c27.2,6.7,54.3,3.6,79.4-8.4,10.8-5.2,20.9-10.2,29.7-18.1l-30.8-10.1c-45-14.7-83.4-4.3-128.4,3.5,7.7-3.2,15.7-4.4,23.8-7.4l56.7-20.9c11.2-4.1,22.7-5,34.2-2.1l19.2,4.8c47.5,11.9,85.5-9.3,116.6-44.4-20.1-4.8-39.5-7-59.4-4.3-30.2,4.1-55.5,20.7-84,30.3,15-9.4,30.1-17.7,44.3-28.5l23.4-17.8c10.9-8.3,28.1-8.6,42.3-9,49.2-1.4,76.1-36,100-73.5.4-.6.8-1.6.9-2s-1.4-.3-1.9-.3c-47.2,1.5-75.8,21.8-111.4,49.9h-1.2c0,0,2.5-3.1,2.5-3.1,14.3-18.1,28.2-36,43.8-53,1.8-2,6.5-5.2,8.9-6l27.7-10.5c40.3-15.2,61.3-53.4,70.7-93-28.6,8.6-54.2,22.9-70,46.5l-20.5,30.6-.9,1.4c-.4.2-1.6.7-1.5.7,12.2-23.6,15.4-41.9,26.3-65.2s7.4-11,13.2-14.7c10.9-6.9,21.2-13.6,30.7-22.3,30.4-27.4,33.4-59.2,30.5-98.8-20.9,14.8-38.7,32.6-51.8,54.4s-11.5,28.3-16.1,43.1l5.5-46c2.2-18.4,3.8-29.8,16.7-42.9,22-22.3,34.9-45.7,32.7-78.3-1.2-18-4.7-35.3-10.6-52.7-32,38.8-35.7,75.1-36.5,122.9-.2,1.4-.6,4-.5,1.6-.5-1.5-1.2-3.4-1.2-4.1-.6-14.7-2.8-30.1-6-44.7-5.9-27.5-7.3-26.5,2.2-49.7,4.1-10.1,8.3-19.5,11-30,9.3-36-4.6-64.6-25.9-92.7l-1.5.5-10.2,42c-9.4,38.8,5.5,59.9,10.8,95.2-8.6-26.7-17.6-51.3-29.7-75.9-4.1-8.2-5.3-16.3-3.6-25.4l3.9-20c6.9-35.1-11.3-68.5-37-91.2l-14.9-13.1c-3.6,36.7-5.6,64,16.3,95.5,5,7.1,9.4,14,13.5,21.6-9.6-10.4-18.9-19.8-30.4-28.8-23.9-18.6-54.3-28.9-84.5-29.3-.6,0-2.2.3-2.1.6s.5,1.3.7,1.7c11.9,18.6,27.1,35.1,45,48s29.9,16.7,47.4,20.1c25.4,5,28.2,5.8,40.8,28.8s12.1,25,17.6,37,1.2,1.8,1.2,1.5-.2,1.1-.3,1.5-.9-.8-1.1-1.2c-18.3-32.5-50.3-49.2-88.1-52,12.4,23.5,29.6,55.5,51.3,69.5,32.9,21.2,53.8,9.3,61.3,52.9,1.9,11,7.6,54.3,6.8,62.4s-.7.3-.7,0c-.6-6.5-3.4-19-5.4-26-10.2-34.8-37.5-54.9-72.3-65.9,4.3,18.8,10,36,18,52.7,19.2,39.7,55.5,32.5,55.4,67.8,0,22.9-3.2,45-7.5,67.1v-15.2c.1-34.8-21.6-60.7-50.3-78.2-4.2,24-6.2,45.2,2.8,67.3s27.4,37.9,32.2,53.9c4.6,15.6-17.1,59.7-25.5,74.6s-3.8,5.6-5.9,8c18.6-48.7,13.6-73.2-18.7-113.2-9.4,23.5-14.5,47.7-14.4,72.5.1,24.5,14.8,50.3,11.2,62.2-5.3,18-31.9,45.9-45.8,60.3l-.4-1c14.9-24.8,27-43.9,24.4-74.6-.4-5.2-4.8-35.9-6.4-36.6s-1.3.7-1.9,1.3c-9.9,9.7-21.8,22.9-29.5,35.7-11.4,19-17.2,40.3-14.7,62.2s8,31.4-5.8,41.5c-20.8,15.2-42.4,28.1-65.9,39.3,23.9-19.2,42.9-35.4,47.7-67.8l5.9-39.7c0-.5-.2-1.8-.4-1.7l-1.3.8c-19.2,11.9-36.6,25.6-50.9,43-29.7,36.3-16.1,65-30.9,75s-16.6,8.8-25.7,11.4l-55.6,15.7c-2-.4-2-.6-.1-1.1,22.5-10.7,41.3-17.4,56-38.4,10.4-14.9,19.5-37.1,23.3-53.3-25.1,9-46.1,17.8-65.7,32.9-35.1,27.1-29.5,58.6-44,62.9-48.9,14.6-43.3,9.7-88.5,0-9.2-2-11.5-29.8-29.5-49.2-21.2-22.9-49.8-35.2-79.5-46.2,5.5,17.8,11.9,33.5,20.5,49.1,7.5,13.5,17.6,24,31.5,30.9l25.3,12.5-41.1-10.1c-13.8-3.4-27-7.6-39.4-14.6-4.9-6.5-7.3-16-8.4-24.3-6.6-49.2-34.9-71-73.7-98.1,2.6,32.3,7.7,69,31.6,90.2l25,22.2c-21-11.4-40.8-23.2-60.3-36.9s-20.2-15.2-16.7-36.3c7.7-46.7-13.7-77.6-44.7-109l-5.3,31.1c-3.1,17.9,0,35.6,7.6,52.1s12.1,21.7,18.4,32.9c-12.9-13.1-47.2-48.2-51.4-64.4s20.8-44.9,9.9-93l-6.1-26.8c-1.2-5.4-2.3-10.1-5.5-15.5-21.6,25.8-34.6,56.1-25.3,89.1l7.2,25.6c-10.4-17.2-32.4-59.2-32.1-78.9s41.7-45.4,38.8-97.1l-1.6-29.6c-17.7,9.1-31.8,22.1-41.5,38.9-9.5,16.3-10.4,34-9.7,53-4.8-20.3-6.3-41-6.7-62.2s9-27.8,24.2-37.7c32.4-21.2,37.1-49.4,48-85.4-8.3,2.8-15.4,5.6-23,9.2-25.1,11.9-42.9,34-49.4,61.1-1.8,7.7-3.1,14.8-5.6,22.1l2.7-33.3c1.2-15.4,3.5-30,7.4-44.8,1.4-5.4,4.3-11.6,9-14.4,8.5-5,17.2-8.3,26.2-11.9,21.8-8.7,39-23.3,50.4-43.9l20.3-36.6c-44.4,4.1-70.5,20.9-90.4,57.6,7.2-21.9,17.7-40.8,30.2-58.9s15.4-10.5,23.8-11.8c33.5-5.1,62.9-21,84-47.4l19.9-24.9c-59.5-.6-86,23.5-124.1,64.1l21.3-33c18.2-28.2,17.5-54.7,14.1-89.2-14.3,10.7-25.4,22.5-35.5,36-13.4,18.2-19.6,39.6-17.8,62.3,1.8,22.8,9.4,32.2,0,50.3ZM657.5,466.2l-90.2-4.3,8.5-29.2c8.6-.8,16.6-1.3,25.2-1.6l29.5-1.1c-10.6-20-24.6-37.9-48.8-38.7-37.3-1.4-73.9-.4-111.2,3.2l14.5,22.9-37.4,67.8-115.9-188.5c-11.4-18.6-21.5-36.9-34.9-55.4l-2.3,163.7c0,2.8,1.5,6.4,2.8,8.6l33.3,55.9,64.7,109,28.2,47-25.8,40.4,62.5,104.6,48-70.3,85-121.8,77-109.8c-4.6-1.2-8.6-2.1-12.8-2.3ZM662.8,454l55.5-60.8,2.5-42.6,6.1-105.4-93.2,133.6,40.1,21.7-11,53.7Z"/>
  <path class="st0" d="M141,291.4c9.4-18.1,1.8-27.5,0-50.3-1.8-22.7,4.3-44.1,17.8-62.3,10-13.6,21.2-25.3,35.5-36,3.5,34.5,4.1,61-14.1,89.2l-21.3,33c38-40.6,64.6-64.7,124.1-64.1l-19.9,24.9c-21.1,26.4-50.6,42.3-84,47.4s-18.8,4.7-23.8,11.8c-12.6,18-23,37-30.2,58.9,19.9-36.8,46.1-53.6,90.4-57.6l-20.3,36.6c-11.4,20.6-28.6,35.2-50.4,43.9-9,3.6-17.7,6.9-26.2,11.9s-7.6,9.1-9,14.4c-3.9,14.8-6.2,29.5-7.4,44.8l-2.7,33.3c2.5-7.3,3.7-14.4,5.6-22.1,6.5-27.1,24.2-49.2,49.4-61.1s14.7-6.4,23-9.2c-10.9,36.1-15.7,64.2-48,85.4-15.3,10-24.6,18.9-24.2,37.7s1.9,41.9,6.7,62.2c-.7-19,.2-36.6,9.7-53,9.7-16.8,23.9-29.8,41.5-38.9l1.6,29.6c2.9,51.7-38.5,78-38.8,97.1s21.7,61.7,32.1,78.9l-7.2-25.6c-9.3-33.1,3.7-63.4,25.3-89.1,3.3,5.5,4.3,10.1,5.5,15.5l6.1,26.8c10.9,48.1-13.8,78.1-9.9,93s38.5,51.3,51.4,64.4c-6.3-11.2-13-21.2-18.4-32.9s-10.6-34.1-7.6-52.1l5.3-31.1c30.9,31.4,52.4,62.2,44.7,109-3.5,21.1.2,24.6,16.7,36.3s39.2,25.5,60.3,36.9l-25-22.2c-23.9-21.2-29-57.9-31.6-90.2,38.8,27.1,67.2,48.9,73.7,98.1s3.5,17.8,8.4,24.3c12.4,7,25.6,11.2,39.4,14.6l41.1,10.1-25.3-12.5c-13.9-6.8-24.1-17.4-31.5-30.9-8.6-15.5-15-31.2-20.5-49.1,29.8,11,58.3,23.3,79.5,46.2,18,19.4,20.2,47.2,29.5,49.2,45.2,9.8,39.6,14.6,88.5,0,14.5-4.3,8.9-35.8,44-62.9,19.6-15.1,40.5-23.9,65.7-32.9-3.9,16.2-12.9,38.4-23.3,53.3-14.7,21-33.5,27.7-56,38.4-1.8.5-1.8.7.1,1.1l55.6-15.7c9.1-2.6,17.9-6.1,25.7-11.4,14.8-10.1,1.2-38.7,30.9-75,14.3-17.5,31.7-31.1,50.9-43l1.3-.8c.2-.1.5,1.2.4,1.7l-5.9,39.7c-4.8,32.4-23.8,48.6-47.7,67.8,23.4-11.3,45.1-24.2,65.9-39.3,13.8-10.1,7.4-27.8,5.8-41.5-2.5-21.9,3.3-43.2,14.7-62.2,7.7-12.8,19.6-26,29.5-35.7s1.8-1.3,1.9-1.3c1.7.7,6,31.3,6.4,36.6,2.6,30.7-9.5,49.8-24.4,74.6l.4,1c13.8-14.4,40.5-42.3,45.8-60.3s-11.1-37.7-11.2-62.2c-.1-24.9,4.9-49,14.4-72.5,32.2,40,37.3,64.4,18.7,113.2,2.1-2.4,4.2-5.1,5.9-8,8.4-14.9,30.1-58.9,25.5-74.6-4.7-16-22.2-29.3-32.2-53.9s-7-43.3-2.8-67.3c28.8,17.5,50.5,43.4,50.4,78.2v15.2c4.2-22.1,7.3-44.2,7.4-67.1.1-35.3-36.2-28.1-55.4-67.8-8-16.6-13.7-33.9-18-52.7,34.8,11,62.1,31.1,72.3,65.9,2.1,7,4.8,19.5,5.4,26s.7.3.7,0c.8-8.1-4.9-51.4-6.8-62.4-7.5-43.5-28.4-31.6-61.3-52.9s-38.9-46-51.3-69.5c37.8,2.9,69.8,19.5,88.1,52,.2.3,1,1.4,1.1,1.2,0-.4.3-1.7.3-1.5s-1.1-1.2-1.2-1.5c-5.6-12-11.2-25.3-17.6-37-12.6-23-15.4-23.8-40.8-28.8-17.5-3.4-32.8-9.5-47.4-20.1s-33.1-29.4-45-48c-.2-.4-.6-1.4-.7-1.7s1.5-.6,2.1-.6c30.2.4,60.5,10.6,84.5,29.3,11.6,9,20.8,18.3,30.4,28.8-4.1-7.6-8.5-14.5-13.5-21.6-21.9-31.5-19.9-58.8-16.3-95.5l14.9,13.1c25.7,22.6,43.8,56.1,37,91.2l-3.9,20c-1.8,9-.5,17.1,3.6,25.4,12.1,24.5,21.1,49.2,29.7,75.9-5.3-35.3-20.2-56.4-10.8-95.2l10.2-42,1.5-.5c21.3,28.1,35.2,56.7,25.9,92.7-2.7,10.5-6.8,19.9-11,30-9.5,23.3-8.1,22.3-2.2,49.7,3.1,14.6,5.4,30,6,44.7s.7,2.6,1.2,4.1c-.1,2.4.3-.3.5-1.6.8-47.8,4.5-84.1,36.5-122.9,5.9,17.3,9.4,34.7,10.6,52.7,2.2,32.6-10.7,56-32.7,78.3s-14.5,24.6-16.7,42.9l-5.5,46c4.6-14.8,7.9-29.5,16.1-43.1,13.1-21.8,30.8-39.6,51.8-54.4,2.9,39.6-.2,71.3-30.5,98.8s-19.9,15.3-30.7,22.3-10.3,8.4-13.2,14.7c-10.9,23.2-14.1,41.5-26.3,65.2,0,0,1.1-.5,1.5-.7l.9-1.4,20.5-30.6c15.8-23.5,41.4-37.9,70-46.5-9.4,39.6-30.4,77.8-70.7,93l-27.7,10.5c-2.3.9-7,4-8.9,6-15.6,17-29.4,34.9-43.8,53l-2.5,3.2h1.2c35.6-28.2,64.2-48.6,111.4-50s2,0,1.9.3-.5,1.4-.9,2c-23.9,37.5-50.8,72.2-100,73.5-14.2.4-31.4.7-42.3,9l-23.4,17.8c-14.2,10.8-29.3,19.1-44.3,28.5,28.4-9.6,53.7-26.2,84-30.3,19.9-2.7,39.3-.6,59.4,4.3-31.1,35-69,56.3-116.6,44.4l-19.2-4.8c-11.6-2.9-23-2-34.2,2.1l-56.7,20.9c-8.1,3-16,4.2-23.8,7.4,45-7.8,83.4-18.2,128.4-3.5l30.8,10.1c-8.8,7.9-18.9,12.9-29.7,18.1-25.1,12-52.1,15.1-79.4,8.4-14.4-3.5-27.3-8.9-40.9-15.1s-21.8-9.9-33.2-8.1l-32,5.1-2.1.2-43.1,6.6c-.6,0-1.9.8-2.9,1.3-1-.2-.2.2,1.2.9,12.8,1.2,25.1,2.1,38,2.5,44.1,1.2,74.4,17,109.7,42.2-31.8,14.2-63.2,15.7-93.7,1.4-22.8-10.6-35.2-24.8-56-34-4.7-2.1-11.3-4.7-16.4-3.3-18.7,5.1-41.2,24.2-60.6,35.4-32.1,18.6-57.5,12.7-89.7,1.6l-1.9-.6c-.5-.2,0-1.6.5-1.9,32.1-22.9,60.6-38.1,101-40.4s31.7-1,47.3-4.1c-30.2-5.5-58.2-9.6-87.3-13.2-7.4-.9-14.9,2.3-21.3,5.2-14.9,6.7-29.1,12.7-44.6,17.4-40.6,12.3-73.7-1.2-107.4-23.8l.2-2.4c37-13.7,63.1-20.9,102.9-13.8l39.2,7c1.8-.7,2.6-1,.8-1l-15.9-4.8-50.2-19.8c-22.3-8.8-23.7-6.5-45.7-1.3-31,7.3-52.6,9.3-82.1-6.3-13-6.9-37.1-24.5-44.8-35.9s1-.9,1.9-1l19.2-2.9c24.7-3.8,48.3-1.4,71.6,8.1l52.3,21.4c.6.2,2.1.4,2.5.3s.4-.4,0-.6c-13.7-5.4-36-20.7-48.1-30.4-7.7-6.2-14.9-11.6-23.1-16.9s-14.4-5.7-21.8-6.2l-29.5-1.8c-24.4-1.5-49.1-18-65.5-35.6s-26.8-32.3-28.6-38.8,1.6-.5,2.2-.4c40,2.2,74.2,18.9,104,44.7,4.5,3.9,8.9,7.2,13.8,10.2-10.4-11.5-19.6-23.4-28.6-36.3-26.9-38.8-34.2-27.7-66.4-44.2-37.3-19.1-51.4-49.5-63.7-88l1.4-1.9,20.2,8.5c25.5,10.8,46,29.1,60.6,52.6s8.4,13.5,13.4,20c-5.3-12.5-10.4-24-15-36.6l-8.5-23.3c-3.2-8.9-9-15.1-16.9-20-32.6-20.2-59.3-44-62-85.1s-2.2-38.8,1.1-36.9c12.7,7.8,33.4,28.3,43.1,40.6s14.9,23,18.9,36.3l6.4,21.3c-2.1-16.1-3.7-31.1-4.7-47.1-1.4-21.1-3-29.9-19.2-43.8-24.4-20.9-36.8-50.4-33.3-82.6s5.4-38.6,11-46.8,1,1,1.3,1.4l13.8,19.3c18.6,26.1,23,68.8,23.9,100.6,1-4.2,1.1-8.4,1.5-13.2,1.2-17,4.1-33.2,7-49.9,1.1-6.6,1-12.6-1.5-18.8l-14.4-36.4c-14.2-36.1,1.4-75.1,26.4-102.4l10.8,49.5c4,18.2-1.9,39.9-6,57.1l-6.8,28.6-.5,2c0,.3.7.3.9,0s.8-1.3.9-1.8c6.6-25.3,17.1-49.3,29.1-72.4ZM864.9,254.2c-4.6-18.9-10.3-36.8-16.8-54,3.9,19.4,9.1,37.1,16.8,54ZM173.8,203.2l-10.1,30.1c-2.3,6.9-4,13.6-5.5,20.8,5-13.6,14.5-35.5,15.6-50.9ZM189.4,250.8l36.7-21c-13.8,4.2-37.7,17.2-47.6,26.7,3.7-1.5,7.1-3.3,10.9-5.7ZM846.5,258.8c-14.1-12-30.9-22.1-49.5-28.6,15.8,9.8,31.3,19.4,49.5,28.6ZM914.1,326l.8-14c.6-9.6,1.3-18.4.8-28.1-1.2,4.3-1.5,8.5-1.9,13.1-.9,13.9-1.7,27-1.8,41.2,1.8-3.9,1.8-7.8,2-12.2ZM107.8,340.2c0-17.6-.5-34-3.1-51.6-1.4,12.5.4,24.7,1,37.4s.5,9.6,2,14.2ZM892.5,358.5c-10.4-11.9-20.1-24.1-34.2-32.6l23.9,23.8c3.4,3.4,6.4,6.7,10.3,8.8ZM154.7,331.2c1.9-1.2,3.5-2.7,4.1-4.6-10.8,7.8-20.4,16.2-27.9,27.5l23.9-22.9ZM83.1,445.2l-13.5-59.3c-.8,3.7-.3,6.7.4,10.2,3.3,17.2,6.6,34.1,12.3,51,2.2,1.6,1.8,0,.8-1.9ZM953.1,395.8c.7-3.7,2.1-7.4.7-10.5l-12.4,58.1c6.8-15.5,8.5-31.1,11.8-47.5ZM114.2,459.8c9.3-10.8,17.1-21.4,24.6-34.3-9,9.9-18.8,20.9-24.6,34.3ZM884.2,424.9l28.7,40.2c-4.5-10.1-18.7-33.9-28.7-40.2ZM930.2,558.9c11.8-18.6,24.2-36.6,33.8-57.1-10,12.7-17.6,26.4-25.8,40.2s-6.1,10.9-8,16.9ZM70.1,516.8c-3.2-5-6.2-9.5-10.2-13.7,9.8,18.9,18.8,37.6,31,55.1-5.9-14.8-13.4-27.8-20.8-41.5ZM124.2,579.1c6.1-19.4,11.6-38.8,16.5-58.3-8.8,18.8-14.3,37.9-16.5,58.3ZM890.7,537.1c-1.5-4.9-3.4-9.5-6.5-14.2l17.6,58.3c-2.3-15.4-6.6-29.5-11.1-44.1ZM936.3,620.3c1.8-1.7,3.4-4.1,4.6-6.3-14.4,12.6-29,24.4-42,39.1,13.5-10.1,25.2-21.4,37.3-32.9ZM124.7,654.2c-11.7-14.9-26.3-27.6-41.6-39.3,13,13.9,26,27,41.6,39.3ZM857.1,677.3c1.6-18,5.7-35.1,1.6-53.9l-1.9,43.3c-.2,3.7-2,7.4.3,10.6ZM164.3,626.9c-.7,15.7-.4,30.5,2.5,45.3,0-10.2.4-38-2.5-45.3ZM801.8,698.9l-18.8,67.1c9.2-18.7,15.6-45.4,18.8-67.1ZM239.7,760.1c-4.7-21.3-9.6-39-15.5-57.3,1.5,15.7,9.9,49.7,15.5,57.3ZM188.8,746.9l-11.3-6.2c-15.9-8.7-32.4-15.2-49.6-21.7,16.3,9.7,33.3,17.5,50.8,25l10.1,2.9ZM889.9,721.4c-2.5.2-3.6.7-5.2,1.3-17.6,7.4-34.8,13.9-51.8,24.1,19.8-6.3,38.8-15.2,57-25.4ZM340.8,828.2c-12.1-20.2-23.7-38.3-36.8-56.3,8.4,18.2,19.6,34,30.6,50.5,2,2.4,4,4.7,6.2,5.8ZM718.5,781.6c2-3.1,3.3-6.6,4-9.7l-39.8,57.9c13.9-14.6,24.9-31.2,35.8-48.2ZM273.1,819.6c-24.9-5.6-49.9-11-75.4-14,22.5,6.8,44.2,10.4,66.7,13.9,2.6.4,5.9.3,8.7.1ZM764.9,818.2c20.4-3.8,40.2-5.7,59.4-12-24.1,2.7-46.9,7-69.8,12.8,3.5,1.5,6.6,0,10.4-.8ZM449.8,860.6c-15.3-15.6-30.9-29-47.6-41.9,12.4,13.1,32.6,33.9,47.6,41.9ZM577,859.1c14.9-9.3,27.1-21.3,40-33.1,1.7-1.6,3.1-2.8,4.7-5.1-16,10.9-30.4,24-44.7,38.2ZM370.3,870c4.5-.1,7.7-.9,10.9-1.8-14.2,0-27.5.2-41.4.7l-39.9,1.5c.3.3,3.3,1.9,4.6,1.9l65.8-2.2ZM717.1,870.8l-12-1.8-54.2-.8c4.9,1.8,9.7,1.8,15.2,2,17.4.5,34.2,1.1,51.1.6ZM617.1,920.9c-19.6-9.3-39.6-16.7-60.4-23.3-4.1-1.3-8.2-2-12.7-2.2l44.8,16.6c9.5,3.5,18.2,7.5,28.3,9ZM407,920.2l62.3-23.9-30.3,8.9c-8.9,3.2-17.2,7-25.8,11.1s-5,1.7-6.3,4Z"/>
  <path class="st0" d="M657.5,466.2c4.2.2,8.2,1.1,12.8,2.3l-77,109.8-85,121.8-48,70.3-62.5-104.6,25.8-40.4-28.2-47-64.7-109-33.3-55.9c-1.3-2.2-2.8-5.8-2.8-8.6l2.3-163.7c13.4,18.5,23.5,36.8,34.9,55.4l115.9,188.5,37.4-67.8-14.5-22.9c37.2-3.6,73.9-4.5,111.2-3.2,24.3.9,38.2,18.7,48.8,38.7l-29.5,1.1c-8.6.3-16.6.8-25.2,1.6l-8.5,29.2,90.2,4.3ZM596.3,421.6c-12.4-1.5-24.5.7-36.4,4.1,12.4-.4,24-1.3,36.4-4.1Z"/>
  <polygon class="st0" points="662.8 454 673.8 400.3 633.8 378.7 727 245.1 720.8 350.5 718.3 393.1 662.8 454"/>
  <path class="st0" d="M202.6,211.3c3.6-16.3,8.8-31.3,15.3-46.2,17.8-40.7,52.1-64.4,95-75.8-4.8,13.2-9.4,24.2-14.6,35.9-8,16-17.8,30.2-30.9,42.3-9.6,8.3-19.9,14.8-31,21-12.2,5.9-22.1,13.1-33.8,22.9ZM227.5,180.4c12.5-13.2,24.8-25.3,36.6-40-9.6,7.7-31,28.5-36.6,40Z"/>
  <path class="st0" d="M821.1,211c-6-2.1-9.5-7.3-14.8-10.2l-26.9-15.2c-39.4-23.2-53.5-53.1-69.6-95.8,41.1,12.1,75.4,33.3,93.7,72.8,7,15.5,13,30.6,17.7,48.4ZM800.2,185c-11.5-16.2-24.6-31.1-41.6-43.8,12.7,14.8,26.7,29.5,41.6,43.8Z"/>
  <path class="st0" d="M617.1,920.9c-10.1-1.4-18.9-5.5-28.3-9l-44.8-16.6c4.6.2,8.6.9,12.7,2.2,20.8,6.6,40.8,14,60.4,23.3Z"/>
  <path class="st0" d="M273.1,819.6c-2.8.1-6.1.3-8.7-.1-22.6-3.5-44.3-7.1-66.7-13.9,25.5,3,50.5,8.4,75.4,14Z"/>
  <path class="st0" d="M370.3,870l-65.8,2.2c-1.4,0-4.3-1.6-4.6-1.9l39.9-1.5c13.9-.5,27.2-.8,41.4-.7-3.2.9-6.4,1.7-10.9,1.8Z"/>
  <path class="st0" d="M718.5,781.6c-10.8,17.1-21.8,33.6-35.8,48.2l39.8-57.9c-.8,3.1-2.1,6.6-4,9.7Z"/>
  <path class="st0" d="M801.8,698.9c-3.2,21.7-9.6,48.4-18.8,67.1l18.8-67.1Z"/>
  <path class="st0" d="M340.8,828.2c-2.2-1.1-4.2-3.5-6.2-5.8-11-16.4-22.2-32.3-30.6-50.5,13.1,18.1,24.7,36.2,36.8,56.3Z"/>
  <path class="st0" d="M188.8,746.9l-10.1-2.9c-17.5-7.5-34.5-15.2-50.8-25,17.2,6.4,33.7,13,49.6,21.7l11.3,6.2Z"/>
  <path class="st0" d="M449.8,860.6c-15-7.9-35.2-28.8-47.6-41.9,16.7,12.9,32.3,26.3,47.6,41.9Z"/>
  <path class="st0" d="M764.9,818.2c-3.8.7-6.9,2.2-10.4.8,22.9-5.8,45.7-10,69.8-12.8-19.1,6.3-39,8.3-59.4,12Z"/>
  <path class="st0" d="M407,920.2c1.3-2.3,4-2.9,6.3-4,8.6-4.1,16.8-7.9,25.8-11.1l30.3-8.9-62.3,23.9Z"/>
  <path class="st0" d="M889.9,721.4c-18.1,10.2-37.1,19.1-57,25.4,17-10.1,34.1-16.7,51.8-24.1s2.7-1.1,5.2-1.3Z"/>
  <path class="st0" d="M930.2,558.9c2-6,4.7-11.4,8-16.9,8.2-13.8,15.8-27.4,25.8-40.2-9.6,20.5-22,38.5-33.8,57.1Z"/>
  <path class="st0" d="M70.1,516.8c7.4,13.7,14.9,26.7,20.8,41.5-12.2-17.5-21.2-36.2-31-55.1,3.9,4.2,7,8.7,10.2,13.7Z"/>
  <path class="st0" d="M124.2,579.1c2.2-20.4,7.6-39.5,16.5-58.3-4.8,19.5-10.4,38.9-16.5,58.3Z"/>
  <path class="st0" d="M846.5,258.8c-18.2-9.2-33.7-18.8-49.5-28.6,18.6,6.5,35.4,16.6,49.5,28.6Z"/>
  <path class="st0" d="M239.7,760.1c-5.6-7.6-14-41.6-15.5-57.3,5.9,18.3,10.8,36,15.5,57.3Z"/>
  <path class="st0" d="M83.1,445.2c1,2,1.4,3.4-.8,1.9-5.7-17-9-33.8-12.3-51-.7-3.5-1.2-6.5-.4-10.2l13.5,59.3Z"/>
  <path class="st0" d="M953.1,395.8c-3.2,16.4-4.9,32-11.8,47.5l12.4-58.1c1.4,3.1,0,6.8-.7,10.5Z"/>
  <path class="st0" d="M890.7,537.1c4.6,14.6,8.8,28.7,11.1,44.1l-17.6-58.3c3,4.7,4.9,9.3,6.5,14.2Z"/>
  <path class="st0" d="M124.7,654.2c-15.6-12.3-28.6-25.4-41.6-39.3,15.3,11.7,29.9,24.4,41.6,39.3Z"/>
  <path class="st0" d="M717.1,870.8c-16.9.5-33.6,0-51.1-.6s-10.3-.2-15.2-2l54.2.8,12,1.8Z"/>
  <path class="st0" d="M577,859.1c14.2-14.3,28.7-27.3,44.7-38.2-1.6,2.3-3,3.5-4.7,5.1-12.9,11.8-25.1,23.8-40,33.1Z"/>
  <path class="st0" d="M189.4,250.8c-3.9,2.4-7.2,4.2-10.9,5.7,9.9-9.5,33.8-22.5,47.6-26.7l-36.7,21Z"/>
  <path class="st0" d="M884.2,424.9c10,6.3,24.1,30.1,28.7,40.2l-28.7-40.2Z"/>
  <path class="st0" d="M936.3,620.3c-12.2,11.5-23.8,22.8-37.3,32.9,13-14.7,27.6-26.6,42-39.1-1.2,2.1-2.8,4.6-4.6,6.3Z"/>
  <path class="st0" d="M857.1,677.3c-2.3-3.3-.5-7-.3-10.6l1.9-43.3c4.1,18.9,0,36-1.6,53.9Z"/>
  <path class="st0" d="M864.9,254.2c-7.7-16.9-12.8-34.6-16.8-54,6.4,17.2,12.2,35,16.8,54Z"/>
  <path class="st0" d="M173.8,203.2c-1.1,15.4-10.6,37.4-15.6,50.9,1.5-7.2,3.2-13.9,5.5-20.8l10.1-30.1Z"/>
  <path class="st0" d="M914.1,326c-.3,4.4-.2,8.4-2,12.2,0-14.2.9-27.3,1.8-41.2s.6-8.9,1.9-13.1c.6,9.8-.2,18.6-.8,28.1l-.8,14Z"/>
  <path class="st0" d="M107.8,340.2c-1.6-4.6-1.8-9.2-2-14.2-.6-12.7-2.5-24.9-1-37.4,2.6,17.6,3.1,34,3.1,51.6Z"/>
  <path class="st0" d="M892.5,358.5c-3.9-2.1-6.9-5.5-10.3-8.8l-23.9-23.8c14.1,8.6,23.8,20.7,34.2,32.6Z"/>
  <path class="st0" d="M114.2,459.8c5.8-13.4,15.6-24.4,24.6-34.3-7.5,12.9-15.3,23.5-24.6,34.3Z"/>
  <path class="st0" d="M164.3,626.9c2.8,7.3,2.5,35.1,2.5,45.3-2.8-14.8-3.2-29.5-2.5-45.3Z"/>
  <path class="st0" d="M154.7,331.2l-23.9,22.9c7.5-11.2,17.2-19.7,27.9-27.5-.6,1.9-2.2,3.4-4.1,4.6Z"/>
  <path class="st0" d="M596.3,421.6c-12.4,2.8-24,3.7-36.4,4.1,11.9-3.4,23.9-5.6,36.4-4.1Z"/>
  <path class="st0" d="M227.5,180.4c5.7-11.5,27-32.3,36.6-40-11.8,14.7-24.1,26.8-36.6,40Z"/>
  <path class="st0" d="M800.2,185c-14.9-14.3-28.9-29-41.6-43.8,17.1,12.7,30.1,27.6,41.6,43.8Z"/>
</svg>