<?xml version="1.0" encoding="UTF-8"?>
<svg id="Layer_2" data-name="Layer 2" xmlns="http://www.w3.org/2000/svg" viewBox="0 0 432.4 529.2">
  <defs>
    <style>
      .cls-1 {
        fill: #ff6b00;
      }
    </style>
  </defs>
  <g id="logo">
    <path class="cls-1" d="M363,224.9l-90.2-4.3,8.5-29.2c8.6-.8,16.6-1.3,25.2-1.6l29.5-1.1c-10.6-20-24.6-37.9-48.8-38.7-37.3-1.4-73.9-.4-111.2,3.2l14.5,22.9-37.4,67.8L37.2,55.4C25.8,36.8,15.7,18.5,2.3,0L0,163.7c0,2.8,1.5,6.4,2.8,8.6l33.3,55.9,64.7,109,28.2,47-25.8,40.4,62.5,104.6,48-70.3,85-121.8,77-109.8c-4.6-1.2-8.6-2.1-12.8-2.3l.1-.1ZM368.3,212.7l55.5-60.8,2.5-42.6,6.1-105.4-93.2,133.6,40.1,21.7-11,53.7v-.2Z"/>
  </g>
</svg>